PathFileType	4	(x/y/z)	TRC_MarkerData\Passive\Passive_Pref0011.trc
DataRate	CameraRate	NumFrames	NumMarkers	Units	OrigDataRate	OrigDataStartFrame	OrigNumFrames
240	240	5	50	mm	240	78	309
Frame#	Time	R_AC			L_AC			HEAD			STERN			C7			L_IC			R_IC			L_ASIS			R_ASIS			L_GT			R_GT			L_PSIS			R_PSIS			SACRAL			L_LAT_KNEE			L_MED_KNEE			R_LAT_KNEE			R_MED_KNEE			L_LAT_ANK			L_MED_ANK			R_LAT_ANK			R_MED_ANK			L_THIGH_PROX_POST			L_THIGH_PROX_ANT			L_THIGH_DIST_ANT			L_THIGH_DIST_POST			R_THIGH_PROX_POST			R_THIGH_PROX_ANT			R_THIGH_DIST_ANT			R_THIGH_DIST_POST			L_SHANK_PROX_POST			L_SHANK_PROX_ANT			L_SHANK_DIST_ANT			L_SHANK_DIST_POST			R_SHANK_PROX_POST			R_SHANK_PROX_ANT			R_SHANK_DIST_ANT			R_SHANK_DIST_POST			L_HEEL_LAT			L_HEEL_SUP			L_HEEL_MED			R_HEEL_LAT			R_HEEL_SUP			R_HEEL_MED			L_1ST_MET			L_5TH_MET			L_TOE			R_1ST_MET			R_5TH_MET			R_TOE			
		X1	Y1	Z1	X2	Y2	Z2	X3	Y3	Z3	X4	Y4	Z4	X5	Y5	Z5	X6	Y6	Z6	X7	Y7	Z7	X8	Y8	Z8	X9	Y9	Z9	X10	Y10	Z10	X11	Y11	Z11	X12	Y12	Z12	X13	Y13	Z13	X14	Y14	Z14	X15	Y15	Z15	X16	Y16	Z16	X17	Y17	Z17	X18	Y18	Z18	X19	Y19	Z19	X20	Y20	Z20	X21	Y21	Z21	X22	Y22	Z22	X23	Y23	Z23	X24	Y24	Z24	X25	Y25	Z25	X26	Y26	Z26	X27	Y27	Z27	X28	Y28	Z28	X29	Y29	Z29	X30	Y30	Z30	X31	Y31	Z31	X32	Y32	Z32	X33	Y33	Z33	X34	Y34	Z34	X35	Y35	Z35	X36	Y36	Z36	X37	Y37	Z37	X38	Y38	Z38	X39	Y39	Z39	X40	Y40	Z40	X41	Y41	Z41	X42	Y42	Z42	X43	Y43	Z43	X44	Y44	Z44	X45	Y45	Z45	X46	Y46	Z46	X47	Y47	Z47	X48	Y48	Z48	X49	Y49	Z49	X50	Y50	Z50	

78	0.32188	-491.1	1534.6	455.45	-503.75	1548.8	49.721	-459.86	1863.8	260.66	-422.42	1504.1	255.83	-556.53	1582.2	251.8	-502.38	1101	103.47	-518.48	1123.1	437.07	-449.89	1049.5	139.5	-453.04	1056.1	405.64	-543.28	967.23	88.599	-533.56	973.46	452.8	-648.46	1066	213.04	-650.28	1057.3	319.17	-662.02	1029.9	264.88	-489.66	570	134.89	-494.75	588.55	272.94	-433.63	563.78	448.89	-417.19	553.75	312.89	-537.25	114.86	172.54	-546.55	115.63	259.9	-764.98	242.04	412.78	-707.12	236.38	322.73	-495.66	795.11	83.045	-481.97	781.3	106.44	-473.46	710.5	121.58	-538.37	709.98	119.37	-500.96	785.1	458.37	-447.38	807.39	463.1	-419.63	730.04	459.79	-487.46	712.63	453.22	-516.54	471.3	156.76	-453.62	472.57	166.03	-454.16	422.99	175.83	-511.01	422.84	157.05	-566.92	450.48	457.29	-514.03	409.31	447.19	-565.31	356.03	435.87	-619.09	397.26	444.27	-589.08	37.344	175.94	-607.14	64.411	205.45	-601.72	40.63	241.6	-844.97	255.17	376.84	-820.69	276.86	345.92	-821.12	244.02	316.42	-382.11	53.41	293.85	-391.34	47.935	182.81	-332.85	70.409	266.23	-672.3	99.717	346.12	-707.08	106.04	450.16	-639.34	74.054	390.98
79	0.32606	-486.41	1535	455.38	-498.4	1549.2	49.672	-454.58	1864.1	260.71	-417.44	1504.4	255.87	-551.5	1582.6	251.65	-497.49	1101.3	103.28	-513.88	1123.5	436.89	-445.18	1049.6	139.23	-448.27	1056.7	405.31	-538.76	967.48	88.418	-528.4	974.09	452.71	-643.66	1066.2	212.88	-645.49	1057.6	319	-657.17	1030.2	264.73	-487.29	570.02	134.72	-492.2	588.65	272.76	-424.63	565.1	448.78	-408.63	555.35	312.76	-536.98	114.98	172.56	-546.32	115.78	259.85	-751.69	238.38	413.08	-693.98	234.01	322.84	-491.18	795.12	83.25	-478.71	781.24	106.33	-470.3	710.48	121.37	-535.2	710.3	119.23	-494.06	786.01	458.53	-439.84	808.72	462.83	-412.21	731.7	459.69	-479.9	713.64	453.43	-514.61	471.46	156.63	-451.67	472.45	165.89	-452.42	422.87	175.72	-509.27	422.97	156.94	-556.5	449.74	457.57	-503.08	409.39	447.04	-553.63	355.42	435.74	-607.95	395.84	444.61	-588.99	37.552	175.95	-606.95	64.608	205.46	-601.68	40.855	241.58	-831.99	249.84	377.59	-808.56	272.14	346.51	-808.3	239.28	316.98	-381.97	53.187	293.86	-391.22	47.763	182.82	-332.66	70.045	266.24	-656.2	98.22	345.96	-690.72	103.65	450.09	-622.52	73.247	390.65
80	0.33024	-481.69	1535.3	455.32	-493.06	1549.5	49.623	-449.3	1864.4	260.76	-412.46	1504.7	255.9	-546.47	1582.9	251.5	-492.59	1101.6	103.1	-509.28	1123.8	436.71	-440.48	1049.8	138.98	-443.52	1057.2	405	-534.25	967.71	88.239	-523.24	974.69	452.62	-638.87	1066.5	212.73	-640.7	1057.9	318.82	-652.33	1030.4	264.58	-484.93	570.03	134.56	-489.67	588.74	272.59	-415.71	566.41	448.66	-400.19	556.92	312.64	-536.7	115.11	172.57	-546.11	115.93	259.8	-738.27	234.6	413.35	-680.74	231.54	322.93	-487.17	794.99	83.732	-475.47	781.17	106.22	-467.17	710.44	121.18	-532.04	710.6	119.1	-487.21	786.92	458.71	-432.2	810	462.53	-404.83	733.35	459.57	-472.38	714.64	453.67	-512.68	471.6	156.51	-449.74	472.32	165.76	-450.7	422.74	175.62	-507.55	423.11	156.82	-546.13	448.94	457.84	-492.16	409.44	446.88	-541.95	354.78	435.59	-596.8	394.34	444.94	-588.9	37.763	175.95	-606.75	64.808	205.47	-601.65	41.078	241.56	-818.85	244.37	378.31	-796.28	267.26	347.09	-795.33	234.39	317.53	-381.83	52.97	293.86	-391.1	47.597	182.83	-332.48	69.687	266.24	-639.97	96.695	345.78	-674.23	101.22	450.01	-605.59	72.435	390.3
81	0.33442	-476.96	1535.5	455.25	-487.75	1549.8	49.576	-444.03	1864.6	260.81	-407.47	1504.9	255.92	-541.45	1583.3	251.36	-487.7	1101.8	102.92	-504.67	1124.1	436.55	-435.79	1049.9	138.73	-438.78	1057.7	404.69	-529.75	967.92	88.062	-518.08	975.27	452.53	-634.08	1066.7	212.58	-635.92	1058.1	318.64	-647.49	1030.6	264.43	-482.6	570.03	134.4	-487.16	588.81	272.43	-406.89	567.71	448.53	-391.88	558.48	312.52	-536.43	115.24	172.59	-545.91	116.08	259.75	-724.72	230.71	413.61	-667.39	228.98	323.01	-483.64	794.76	84.457	-472.26	781.08	106.12	-464.06	710.39	120.99	-528.88	710.88	118.98	-480.41	787.83	458.92	-424.53	811.24	462.2	-397.52	734.97	459.45	-464.92	715.65	453.91	-510.77	471.74	156.39	-447.82	472.2	165.63	-448.99	422.62	175.52	-505.84	423.24	156.71	-535.78	448.07	458.11	-481.26	409.47	446.72	-530.25	354.09	435.44	-585.64	392.76	445.26	-588.81	37.978	175.96	-606.55	65.011	205.48	-601.6	41.3	241.54	-805.57	238.76	378.99	-783.85	262.24	347.65	-782.22	229.36	318.06	-381.7	52.759	293.87	-390.98	47.439	182.84	-332.3	69.337	266.25	-623.63	95.149	345.58	-657.62	98.767	449.9	-588.56	71.622	389.93
82	0.3386	-472.21	1535.8	455.19	-482.45	1550.1	49.529	-438.76	1864.8	260.86	-402.48	1505.1	255.94	-536.43	1583.6	251.22	-482.81	1102	102.75	-500.05	1124.4	436.39	-431.11	1050	138.5	-434.05	1058.1	404.4	-525.25	968.11	87.889	-512.94	975.83	452.45	-629.29	1066.9	212.43	-631.13	1058.3	318.46	-642.66	1030.8	264.28	-480.27	570.03	134.25	-484.68	588.89	272.27	-398.17	569	448.41	-383.69	560.01	312.4	-536.15	115.38	172.6	-545.72	116.24	259.71	-711.06	226.73	413.85	-653.93	226.35	323.09	-480.61	794.43	85.387	-469.06	780.99	106.03	-460.96	710.33	120.82	-525.73	711.14	118.88	-473.65	788.74	459.15	-416.87	812.45	461.86	-390.25	736.58	459.33	-457.52	716.64	454.17	-508.87	471.88	156.27	-445.91	472.06	165.5	-447.29	422.5	175.43	-504.14	423.37	156.6	-525.47	447.15	458.38	-470.4	409.48	446.56	-518.55	353.37	435.29	-574.48	391.11	445.57	-588.72	38.196	175.96	-606.35	65.218	205.48	-601.54	41.521	241.52	-792.12	233.04	379.65	-771.25	257.09	348.18	-768.95	224.21	318.57	-381.57	52.554	293.87	-390.86	47.287	182.85	-332.12	68.994	266.26	-607.17	93.592	345.37	-640.9	96.304	449.79	-571.44	70.818	389.56
